<?xml version="1.0" encoding="UTF-8" standalone="no"?>
<!-- Created with Inkscape (http://www.inkscape.org/) -->

<svg
   width="159mm"
   height="90mm"
   viewBox="0 0 159 90"
   version="1.1"
   id="svg1"
   xml:space="preserve"
   inkscape:version="1.4.2 (f4327f4, 2025-05-13)"
   sodipodi:docname="Fati_logo.svg"
   xmlns:inkscape="http://www.inkscape.org/namespaces/inkscape"
   xmlns:sodipodi="http://sodipodi.sourceforge.net/DTD/sodipodi-0.dtd"
   xmlns="http://www.w3.org/2000/svg"
   xmlns:svg="http://www.w3.org/2000/svg"><sodipodi:namedview
     id="namedview1"
     pagecolor="#ffffff"
     bordercolor="#000000"
     borderopacity="0.25"
     inkscape:showpageshadow="2"
     inkscape:pageopacity="0.0"
     inkscape:pagecheckerboard="0"
     inkscape:deskcolor="#d1d1d1"
     inkscape:document-units="mm"
     inkscape:zoom="0.50835204"
     inkscape:cx="-166.22339"
     inkscape:cy="339.33177"
     inkscape:window-width="1920"
     inkscape:window-height="1009"
     inkscape:window-x="-8"
     inkscape:window-y="-8"
     inkscape:window-maximized="1"
     inkscape:current-layer="layer1" /><defs
     id="defs1" /><g
     inkscape:label="Réteg 1"
     inkscape:groupmode="layer"
     id="layer1"><path
       style="fill:#c3b78e"
       d="m 57.312564,88.67486 c -0.73379,-0.17164 -1.088571,-0.36831 -1.62669,-0.90177 l -0.426032,-0.42234 -0.189681,-0.39986 c -0.104324,-0.21993 -0.250079,-0.70633 -0.3239,-1.0809 l -0.134219,-0.68104 -0.0017,-3.412922 -0.0017,-3.41291 -0.233945,-0.2516 -0.233944,-0.2516 h -0.337921 -0.33792 v -0.10251 -0.1025 h 2.001528 2.001528 v 0.1025 0.10251 h -0.33792 -0.337921 l -0.233944,0.2516 -0.233945,0.2516 -0.0138,2.08036 c -0.0076,1.1442 -0.02655,2.656952 -0.04213,3.361672 l -0.02833,1.2813 0.09988,0.76853 0.09988,0.76852 0.17217,0.35902 c 0.210158,0.43823 0.694195,0.94012 1.141984,1.1841 l 0.333588,0.18176 0.678705,0.0474 0.678705,0.0473 0.481278,-0.17192 0.481277,-0.17192 0.43118,-0.40818 0.43118,-0.40819 0.267399,-0.58569 0.267399,-0.5857 0.02822,-3.832272 0.02821,-3.83228 -0.213314,-0.24419 -0.213314,-0.2442 -0.362938,-0.0624 -0.362937,-0.0624 v -0.0894 -0.0894 h 1.334352 1.334352 v 0.0894 0.0894 l -0.387812,0.0667 -0.387812,0.0667 -0.231709,0.26889 -0.231708,0.26889 -7.2e-4,3.29078 -7.2e-4,3.290792 -0.09839,0.65212 -0.09839,0.65212 -0.23447,0.49762 -0.234469,0.49763 -0.349182,0.37553 -0.349182,0.37554 -0.515374,0.25375 -0.515374,0.25375 -0.636599,0.0883 c -0.829407,0.11506 -1.08899,0.10667 -1.792857,-0.058 z m 41.361823,-0.68442 c -0.30593,-0.41035 -0.92081,-1.26205 -1.36639,-1.89267 -1.55086,-2.1949 -4.3741,-6.138572 -4.61325,-6.444032 l -0.24075,-0.30752 -0.003,4.130882 -0.003,4.13088 0.14192,0.29515 0.14192,0.29516 0.1915,0.0654 c 0.10532,0.0359 0.32024,0.0693 0.4776,0.0741 l 0.2861,0.009 v 0.0869 0.0869 h -1.43529 -1.43529 l 0.0589,-0.1025 0.0589,-0.10251 h 0.3353 0.33529 l 0.2786,-0.29962 0.2786,-0.29963 v -4.39564 -4.395652 l -0.23633,-0.3445 c -0.27184,-0.39627 -0.68906,-0.71871 -0.93122,-0.71969 l -0.1668,-6.7e-4 v -0.10251 -0.1025 h 1.28176 1.28176 l 1.17249,1.64985 c 0.64488,0.90741 1.81585,2.55959 2.60216,3.671512 0.78632,1.11191 1.56796,2.20302 1.73699,2.42468 l 0.30732,0.40303 -0.0214,-3.730382 -0.0214,-3.73037 -0.24653,-0.19791 -0.24653,-0.19791 -0.39681,-0.0573 -0.39682,-0.0572 v -0.089 -0.089 h 1.42966 1.429663 v 0.089 0.089 l -0.39523,0.057 -0.395233,0.057 -0.20046,0.21552 -0.20046,0.21552 -0.0477,5.139552 -0.0477,5.13954 -0.11092,0.0397 -0.11093,0.0397 z m 35.471263,0.59152 c -0.20968,-0.0713 -0.51851,-0.20662 -0.68627,-0.30066 l -0.30503,-0.17098 h -0.28375 -0.28374 l -0.18743,0.25626 c -0.10309,0.14094 -0.23593,0.25626 -0.29521,0.25626 h -0.10779 l 0.0262,-1.64029 0.0262,-1.64028 0.0894,-0.005 0.0894,-0.005 0.12473,0.52417 c 0.0686,0.28829 0.23581,0.72801 0.37157,0.97714 l 0.24683,0.45298 0.47761,0.46182 0.47761,0.46182 0.4846,0.15477 0.48459,0.15477 h 0.53585 0.53585 l 0.50167,-0.26886 0.50167,-0.26886 0.23087,-0.37519 0.23087,-0.37519 0.0585,-0.45893 0.0585,-0.45893 -0.10604,-0.42353 -0.10604,-0.42354 -0.39031,-0.37923 -0.39031,-0.37923 -1.53883,-0.80035 -1.53883,-0.80035 -0.44474,-0.42143 -0.44474,-0.421432 -0.22005,-0.48574 -0.22004,-0.48574 -0.001,-0.76883 -0.001,-0.76884 0.24771,-0.51246 0.24771,-0.51247 0.48819,-0.43119 0.48818,-0.43119 0.49536,-0.15821 0.49537,-0.15821 h 0.73868 0.73869 l 0.78946,0.31305 0.78946,0.31306 0.21622,-0.12446 0.21623,-0.12445 0.0557,-0.1886 c 0.0306,-0.10373 0.0957,-0.1886 0.14454,-0.1886 h 0.0889 v 1.58882 1.58881 h -0.0847 -0.0847 l -0.0658,-0.38439 c -0.0362,-0.21142 -0.14515,-0.57892 -0.24214,-0.81668 l -0.17635,-0.43228 -0.45013,-0.51754 -0.45014,-0.51755 -0.52666,-0.16466 -0.52666,-0.16466 -0.60548,0.0523 -0.60548,0.0523 -0.37568,0.26738 -0.37568,0.26737 -0.13746,0.28587 c -0.0756,0.15722 -0.16734,0.45724 -0.20388,0.66671 l -0.0664,0.38085 0.063,0.36095 0.063,0.36096 0.28648,0.35091 0.28648,0.3509 0.59044,0.34709 c 0.32475,0.1909 0.97646,0.52613 1.44825,0.74495 1.01684,0.471622 1.44571,0.744092 1.96425,1.247922 l 0.38467,0.37375 0.20387,0.417 0.20387,0.41701 -0.001,0.87129 -0.001,0.87128 -0.1497,0.36622 c -0.0823,0.20142 -0.28961,0.5376 -0.46062,0.74707 l -0.31092,0.38085 -0.4145,0.26125 c -0.22797,0.14368 -0.64026,0.32588 -0.91621,0.40488 l -0.50171,0.14364 -0.81014,-0.006 -0.81015,-0.006 z M 8.4159377,88.48098 c -0.217759,-0.076 -0.567925,-0.27119 -0.778148,-0.4337 l -0.382224,-0.29548 -0.288016,-0.46139 -0.288017,-0.46139 -0.169355,-0.61503 -0.169354,-0.61502 0.0081,-1.12755 0.0081,-1.12754 0.196693,-0.97379 c 0.676269,-3.348072 2.682745,-7.637862 6.8339583,-14.610792 0.902998,-1.51679 3.195842,-5.1664 4.713028,-7.50191 0.447732,-0.68922 1.071398,-1.65569 1.385924,-2.147697 0.314526,-0.49201 1.340451,-2.04993 2.279834,-3.46205 0.939383,-1.41211 1.797473,-2.70586 1.906866,-2.87499 0.109392,-0.16913 0.622198,-0.94362 1.139568,-1.72108 l 0.940673,-1.41356 -0.06314,-0.0679 -0.06314,-0.0679 -2.355499,0.84391 c -1.295524,0.46415 -3.148961,1.18712 -4.118749,1.6066 l -1.763251,0.7627 -1.476875,0.79739 c -2.641972,1.42647 -4.333212,2.64034 -5.067064,3.63683 l -0.297918,0.40454 -0.128034,0.39967 -0.128033,0.39967 0.100292,0.28469 c 0.05516,0.15658 0.184584,0.38148 0.287607,0.49978 l 0.187315,0.2151 0.521168,0.190517 c 0.286642,0.10479 0.521167,0.22427 0.521167,0.26552 v 0.075 l -0.428899,0.0692 -0.428899,0.0692 -0.452726,-0.0714 c -0.249,-0.0392 -0.6242863,-0.1538 -0.8339703,-0.25457 l -0.381244,-0.18321 -0.285932,-0.327567 -0.285933,-0.32757 v -0.74041 -0.74041 l 0.333588,-0.5937 0.333588,-0.5937 0.5700603,-0.61402 c 1.200236,-1.29279 2.980374,-2.56068 5.577491,-3.97253 l 1.66794,-0.90674 1.715595,-0.74401 c 2.492885,-1.08111 5.420532,-2.10479 8.11705,-2.8382 l 0.301559,-0.082 0.794516,-1.1654 c 0.436984,-0.64097 0.880296,-1.29616 0.985138,-1.45598 0.104842,-0.15983 0.511512,-0.74245 0.903712,-1.29471 0.392199,-0.55226 1.546741,-2.18034 2.565647,-3.61796 4.482167,-6.32408 6.79602,-9.42514 11.241923,-15.06663 0.541532,-0.68716 2.507596,-3.10811 2.581748,-3.17908 0.02945,-0.0282 0.375221,-0.443 0.768379,-0.9218 1.527512,-1.86026 3.644107,-4.32039 5.194442,-6.03752 3.268067,-3.6196801 3.843469,-4.2653501 3.821931,-4.2886701 -0.06582,-0.0712 -2.895385,0.946 -6.02595,2.1663601 -8.254247,3.21769 -17.114675,7.5151 -25.388476,12.3137 -2.7862,1.61593 -3.429661,1.99769 -5.840894,3.46533 -7.735491,4.70838 -12.9515473,8.75631 -15.2134933,11.80649 l -0.533524,0.71944 -0.329796,0.70222 -0.329795,0.70223 -0.03852,0.65065 -0.03852,0.65065 0.251713,0.46193 0.251713,0.46193 0.425032,0.26789 c 0.233768,0.14733 0.650804,0.33252 0.926748,0.41152 l 0.501716,0.14364 0.810142,0.004 0.810142,0.004 -0.179946,0.1124 c -0.09897,0.0618 -0.399199,0.17518 -0.667176,0.25192 l -0.48723,0.13953 -0.816671,0.001 -0.816671,10e-4 -0.517681,-0.16324 c -0.631303,-0.19908 -1.18719,-0.57017 -1.560247,-1.04156 l -0.280078,-0.3539 -0.169537,-0.52758 -0.16953602,-0.52757 -7.82e-4,-0.46127 c -4.3e-4,-0.2537 0.04294,-0.66884 0.09638,-0.92253 l 0.09716,-0.46127 0.387192,-0.82003 0.387193,-0.82004 0.505942,-0.72388 C 8.9426097,28.162601 37.242405,12.308721 57.849302,6.5187409 l 0.810142,-0.22763 0.810142,-0.84684 0.810143,-0.84683 0.305027,-0.16818 0.305027,-0.16818 h 0.412425 0.412425 l 0.221897,0.16716 0.221897,0.16715 0.134742,0.34682 0.134743,0.34682 0.26026,-0.0577 c 0.143144,-0.0317 0.60338,-0.14621 1.022748,-0.2544 2.23626,-0.5769 2.945663,-0.75479 4.908509,-1.23081 5.404914,-1.31077 9.925864,-2.16837 14.344288,-2.72102 l 1.23904,-0.15496997 2.2398,-0.0617 2.23981,-0.0617 1.14373,0.12403 c 0.62905,0.0682 1.65841,0.21830997 2.28746,0.33353997 l 1.14373,0.20951 0.99508,0.35575 c 1.22197,0.43686 1.87541,0.78569 2.65996,1.41995 l 0.60382,0.48816 0.31681,0.52237 0.3168,0.52237 0.11744,0.58431 0.11744,0.58431 -0.10666,0.57117 -0.10666,0.57116 -0.24823,0.45555 c -0.13653,0.25055 -0.48573,0.71508 -0.776,1.03228 l -0.52776,0.57673 -0.6326,0.43356 c -0.34793,0.23845 -0.86194,0.5371901 -1.14224,0.6638601 l -0.50964,0.23031 -0.0622,-0.0724 -0.0622,-0.0724 0.1268,-0.0485 c 0.50038,-0.19142 1.88967,-1.7314501 2.22768,-2.4693901 l 0.21891,-0.47791 v -0.82287 -0.82287 l -0.29975,-0.43835 -0.29974,-0.43836 -0.53568,-0.44735 -0.53567,-0.44735 -0.6419,-0.2597 c -0.7886,-0.31906 -1.86447,-0.61318 -3.12056,-0.8531 l -0.95253,-0.18194 -3.24057,0.005 -3.24057,0.005 -2.14449,0.27383 c -5.471114,0.69863 -12.590412,2.30088 -19.634036,4.41879 l -1.191386,0.35823 -0.368656,0.44037 c -0.581742,0.69492 -4.894571,6.2415201 -8.601167,11.0617001 -3.40148,4.4234 -8.336915,11.07242 -11.664979,15.71506 -0.288316,0.4022 -0.888774,1.23479 -1.334352,1.85021 -1.602088,2.21273 -5.904345,8.39556 -5.868664,8.43393 0.02005,0.0216 0.823301,-0.0791 1.785001,-0.22375 2.394167,-0.36005 4.231299,-0.55252 6.037535,-0.63255 l 1.524974,-0.0676 1.14373,0.11415 1.143731,0.11416 0.571865,0.15731 c 0.314526,0.0865 0.8396,0.29742 1.16683,0.46866 l 0.594966,0.31133 0.250735,0.46014 0.250735,0.46013 -0.0569,0.37708 -0.0569,0.37708 -0.178138,0.25867 c -0.09798,0.14226 -0.349009,0.39975 -0.557852,0.57218 l -0.379714,0.31353 -0.537,0.18165 -0.536999,0.18166 -0.170506,-0.0367 -0.170505,-0.0367 0.316221,-0.20218 0.316222,-0.20217 0.279471,-0.45322 0.279471,-0.45321 v -0.21595 -0.21588 l -0.149309,-0.22919 -0.149265,-0.22919 -0.351117,-0.19101 c -0.501215,-0.27265 -1.244011,-0.42182 -2.447957,-0.49158 l -1.048419,-0.0608 -1.429663,0.12045 c -2.3697,0.19964 -6.239729,0.81204 -8.196735,1.29707 l -0.667176,0.16536 -1.620284,2.31445 c -1.734993,2.4783 -3.997525,5.69354 -4.999262,7.10435 -1.473688,2.075477 -7.032237,10.052147 -8.210836,11.782757 -3.729564,5.47638 -6.096897,9.41662 -7.4331743,12.37194 l -0.565315,1.25026 -0.328174,1.056082 -0.328174,1.05609 -0.113018,0.73849 -0.113018,0.7385 0.115794,0.64531 0.115794,0.64531 0.205582,0.32767 0.205582,0.32768 0.348202,0.21047 0.348202,0.21047 0.558889,-10e-4 0.5588883,-0.001 0.80625,-0.30179 c 1.25509,-0.46979 1.09457,-0.1324 -0.282041,0.5928 l -0.714831,0.37658 -0.7148323,0.0245 -0.714831,0.0245 z m 13.2628913,0.035 -0.476555,-0.0603 0.419572,-0.0858 0.419571,-0.0858 0.160484,-0.1726 0.160484,-0.1726 0.06445,-3.17241 0.06444,-3.172422 -0.06415,-1.67347 -0.06415,-1.67346 -0.193255,-0.19363 -0.193255,-0.19363 h -0.363272 -0.363271 v -0.10251 -0.1025 h 2.471851 2.471852 l 0.687296,0.15549 0.687296,0.15548 0.474127,0.27753 0.474126,0.27753 0.213653,0.31014 c 0.117509,0.17057 0.262466,0.46693 0.322127,0.65857 l 0.108473,0.34843 -0.0021,0.4716 -0.0021,0.4716 -0.174966,0.41426 -0.174966,0.41425 -0.312222,0.28255 c -0.323121,0.29241 -0.971783,0.682762 -1.134564,0.682762 -0.0511,0 -0.213643,0.0518 -0.361213,0.11509 l -0.26831,0.11508 0.52421,0.13338 c 0.288316,0.0734 0.722767,0.22512 0.965448,0.33724 l 0.441238,0.20387 0.335187,0.36048 0.335188,0.36049 0.164844,0.53375 0.164845,0.53376 -0.05165,0.53822 -0.05165,0.53822 -0.152742,0.31766 c -0.08401,0.17472 -0.290942,0.48695 -0.459854,0.69384 l -0.307111,0.37618 -0.566538,0.28815 -0.566537,0.28815 -0.482749,0.099 -0.482748,0.099 -2.19215,0.0348 c -1.205683,0.0191 -2.406599,0.008 -2.668704,-0.0255 z m 4.860854,-0.39245 0.381243,-0.18728 0.312175,-0.34511 0.312174,-0.34511 0.140552,-0.50901 0.140552,-0.50901 -5.31e-4,-0.62204 -5.32e-4,-0.62205 -0.102014,-0.39512 -0.102015,-0.39512 -0.379665,-0.44297 -0.379665,-0.44298 -0.440221,-0.16132 -0.44022,-0.16131 h -0.93613 -0.93613 v 2.47765 2.47765 l 0.157738,0.18745 0.157738,0.18745 0.866854,-0.002 0.866853,-0.002 z m -0.369929,-5.55308 c 0.150575,-0.0616 0.418023,-0.23027 0.59433,-0.374892 l 0.320557,-0.26296 0.178154,-0.42191 0.178155,-0.42192 0.0021,-0.7827 0.0021,-0.7827 -0.264879,-0.5453 -0.264879,-0.54531 -0.445579,-0.2466 -0.445579,-0.24661 -0.614779,-0.0531 -0.614778,-0.0531 -0.342704,0.0691 -0.342703,0.0691 v 2.34582 2.345822 l 0.214449,0.0508 c 0.117947,0.028 0.519961,0.0323 0.893363,0.01 l 0.678914,-0.0413 z m 6.422169,5.94986 -0.428899,-0.0512 0.174589,-0.0769 c 0.09602,-0.0423 0.267584,-0.0783 0.381243,-0.0801 0.11366,-0.002 0.283325,-0.0658 0.377033,-0.14225 l 0.170379,-0.13898 0.09173,-0.34397 0.09173,-0.34397 -0.0049,-3.89583 -0.0049,-3.895832 -0.0728,-0.70505 -0.0728,-0.70505 -0.178799,-0.14061 -0.178798,-0.1406 h -0.363025 -0.363027 v -0.10251 -0.1025 h 3.717124 3.717124 v 1.429 1.42901 l -0.07585,0.0504 -0.07585,0.0504 -0.169164,-0.70623 -0.169163,-0.70624 -0.209511,-0.33435 -0.209511,-0.33436 -0.465881,-0.30977 -0.465881,-0.30977 -1.367055,-0.0276 -1.367056,-0.0276 -0.0091,1.25672 c -0.005,0.6912 -0.02663,1.82178 -0.04811,2.5124 l -0.03904,1.255672 h 0.813655 0.813655 l 0.314524,-0.14133 0.314525,-0.14134 0.20779,-0.2841 0.207791,-0.284102 0.05901,-0.39687 c 0.03245,-0.21827 0.09182,-0.41867 0.131916,-0.44533 l 0.07291,-0.0485 0.06827,1.468662 0.06827,1.46866 -0.05354,0.45277 c -0.02945,0.24903 -0.05572,0.46703 -0.05838,0.48445 -0.0285,0.18642 -0.188343,-0.18708 -0.240674,-0.56238 l -0.06721,-0.48198 -0.306954,-0.33012 -0.306953,-0.33012 -0.423154,-0.0673 c -0.232735,-0.037 -0.670393,-0.0527 -0.972574,-0.0348 l -0.549419,0.0325 -0.01816,2.37301 -0.01816,2.37301 0.126528,0.16396 0.126527,0.16396 1.251199,-0.004 1.251199,-0.005 0.349195,-0.13414 c 0.192057,-0.0738 0.480386,-0.24473 0.640731,-0.37989 l 0.291536,-0.24576 0.336205,-0.70567 0.336205,-0.70567 v -0.28769 -0.28769 l 0.09531,-0.0634 0.09531,-0.0634 -0.0015,1.46673 -0.0015,1.46674 -0.07002,0.1025 -0.07002,0.1025 h -3.383536 c -1.860944,0 -3.57654,-0.0231 -3.812434,-0.0513 z m 15.534093,0.0169 -0.09492,-0.0344 0.05387,-0.0937 0.05387,-0.0937 h 0.286574 c 0.157615,0 0.369534,-0.0478 0.470929,-0.10611 l 0.184356,-0.10611 0.0027,-0.27828 0.0027,-0.27828 -0.501115,-1.40943 -0.501115,-1.40943 h -1.792077 -1.792076 l -0.0554,0.17939 c -0.03047,0.0987 -0.220396,0.64394 -0.422058,1.21173 -0.201662,0.5678 -0.394416,1.21904 -0.428341,1.4472 l -0.06168,0.41485 0.222007,0.16724 0.222006,0.16723 h 0.306756 0.306756 l 0.05891,0.10251 0.0589,0.1025 h -1.387632 -1.387633 v -0.1025 -0.10251 l 0.21445,-3.8e-4 0.214449,-3.8e-4 0.303678,-0.19914 c 0.452312,-0.29661 0.523325,-0.45933 2.21655,-5.07905 0.619902,-1.691322 1.335805,-3.639892 1.590895,-4.330172 l 0.463799,-1.25504 0.09531,0.0327 0.09531,0.0327 0.36586,0.96609 c 0.201223,0.53135 0.526791,1.38123 0.723484,1.88862 0.947606,2.444472 2.166233,5.755442 2.541345,6.904762 l 0.179347,0.54952 0.270617,0.24489 0.270617,0.24489 h 0.22534 0.225339 l 0.05653,0.0984 0.05653,0.0984 -1.910448,0.0298 c -1.050746,0.0164 -1.953162,0.0143 -2.005369,-0.005 z m -0.236521,-4.32143 c -0.184751,-0.62603 -1.556087,-4.152022 -1.614813,-4.152022 -0.05825,0 -1.309381,3.386842 -1.524107,4.125792 l -0.06702,0.23063 h 1.63313 1.63313 z m 19.919792,4.31183 c -0.157263,-0.047 -0.253765,-0.0967 -0.21445,-0.11046 0.167761,-0.0585 0.277248,-0.0769 0.530066,-0.089 l 0.267961,-0.0128 0.208593,-0.209 0.208594,-0.209 v -5.03393 -5.033922 l -0.803995,0.061 -0.803994,0.061 -0.388669,0.21325 -0.388669,0.21324 -0.270527,0.40164 -0.270528,0.40164 -0.107596,0.59499 c -0.05918,0.32725 -0.119147,0.67815 -0.133266,0.77979 l -0.02567,0.1848 -0.08616,-0.031 -0.08616,-0.031 -0.0063,-0.66628 c -0.0035,-0.36645 0.0031,-1.04682 0.01468,-1.51193 l 0.02101,-0.84566 h 4.193678 4.193678 v 1.59486 1.59486 l -0.0953,-0.0634 -0.0953,-0.0633 v -0.28286 c 0,-0.15557 -0.0685,-0.53339 -0.15214,-0.83961 l -0.15214,-0.55675 -0.23463,-0.33408 -0.23462,-0.33409 -0.39955,-0.22026 -0.399549,-0.22027 -0.667176,-0.0403 -0.667176,-0.0403 -0.142967,0.10398 -0.142966,0.10399 -0.02878,4.590852 -0.02878,4.59086 0.05792,0.33886 0.05792,0.33885 0.185305,0.19929 0.185306,0.19929 h 0.381243 0.381244 v 0.10251 0.1025 h -0.652212 c -0.358717,0 -1.162902,0.0209 -1.787079,0.0464 l -1.134866,0.0464 z m 34.654853,-10e-4 -0.10113,-0.0672 0.43923,-0.12634 0.43923,-0.12634 0.25403,-0.29247 0.25404,-0.29247 0.69081,-1.93391 c 0.37994,-1.06365 1.21448,-3.35226 1.85453,-5.085822 l 1.16373,-3.15191 0.0755,-8e-5 c 0.10034,-1.2e-4 0.74403,1.53505 1.8481,4.40758 0.18419,0.479212 0.36633,0.917412 0.40477,0.973792 0.0384,0.0564 0.21158,0.49458 0.38475,0.97379 1.41695,3.92106 1.56685,4.22155 2.24883,4.50791 0.25894,0.10872 0.44935,0.20294 0.42314,0.20936 -0.26481,0.0649 -2.08466,0.0882 -2.93081,0.0375 l -1.07225,-0.0642 v -0.0902 -0.0902 h 0.2922 c 0.16071,0 0.37516,-0.0478 0.47656,-0.10611 l 0.18435,-0.10611 v -0.25176 -0.25177 l -0.54061,-1.43594 -0.54061,-1.43595 h -1.82499 -1.82499 l -0.49439,1.40943 c -0.27192,0.77519 -0.49409,1.5106 -0.49373,1.63426 l 6.7e-4,0.22482 0.21183,0.15957 0.21183,0.15956 h 0.30676 0.30675 l 0.0589,0.10251 0.0589,0.1025 -0.506,0.0183 c -0.27831,0.01 -0.87789,0.0266 -1.3324,0.0367 l -0.82639,0.0185 z m 6.09054,-4.14374 c 0,-0.0205 -0.32501,-0.86236 -0.72224,-1.87069 -0.39723,-1.008342 -0.76899,-1.983262 -0.82613,-2.166482 -0.15135,-0.48531 -0.21593,-0.4251 -0.54979,0.51252 -0.16561,0.46511 -0.48539,1.35305 -0.71063,1.973202 -0.22524,0.62015 -0.43886,1.23133 -0.47473,1.35818 l -0.0652,0.23063 h 1.67436 c 0.9209,0 1.67436,-0.0168 1.67436,-0.0374 z m 6.64677,4.16913 -0.16796,-0.0471 0.0544,-0.0948 0.0545,-0.0948 h 0.32796 0.32797 l 0.1882,-0.2024 c 0.29314,-0.31526 0.2972,-0.39497 0.26813,-5.26506 l -0.0274,-4.596172 -0.22501,-0.19589 -0.22501,-0.19588 h -0.37068 -0.37069 v -0.10251 -0.1025 h 2.00153 2.00153 v 0.1025 0.10251 h -0.27814 c -0.15298,0 -0.34757,0.0286 -0.43242,0.0637 l -0.15429,0.0637 -0.13944,0.29 -0.13944,0.29 v 4.499972 4.49997 l 0.10222,0.31538 0.10223,0.31537 0.29324,0.10994 c 0.16128,0.0605 0.38334,0.11725 0.49347,0.12618 0.11012,0.009 -0.18579,0.0502 -0.65757,0.0916 -0.95203,0.0837 -2.7664,0.0994 -3.02729,0.0262 z m 6.45324,-0.0203 c -0.0205,-0.022 -0.0144,-0.0796 0.0135,-0.12813 l 0.0507,-0.0882 h 0.3687 0.3687 l 0.19754,-0.27008 0.19754,-0.27008 v -4.59404 -4.594032 l -0.10845,-0.25598 -0.10844,-0.25598 -0.28702,-0.10761 c -0.15786,-0.0592 -0.38784,-0.1076 -0.51107,-0.1076 h -0.22406 v -0.10251 -0.1025 h 2.00153 2.00153 v 0.1025 0.10251 h -0.2338 c -0.12858,0 -0.3383,0.0512 -0.46604,0.1138 l -0.23225,0.11381 -0.10582,0.24978 -0.10582,0.24978 v 4.636302 4.6363 l 0.14837,0.22782 0.14837,0.22781 h 1.169 1.169 l 0.4689,-0.17182 0.4689,-0.17183 0.49776,-0.53533 0.49776,-0.53533 0.21315,-0.77915 c 0.28981,-1.0594 0.31394,-1.00682 0.34457,0.75078 l 0.0267,1.52933 -0.11514,0.0765 -0.11513,0.0765 -3.85092,0.008 c -2.11801,0.005 -3.86768,-0.01 -3.88816,-0.0316 z M 78.722373,88.41787 c 0.0786,-0.0547 0.27571,-0.10007 0.43796,-0.10094 l 0.29498,-0.002 0.18157,-0.21568 0.181574,-0.21568 v -2.01378 -2.01378 l -0.436454,-0.76878 c -0.24005,-0.42283 -0.77106,-1.391492 -1.18003,-2.152582 -0.40897,-0.7611 -0.9417,-1.7067 -1.18383,-2.10134 l -0.44025,-0.71752 -0.45223,-0.15376 c -0.24872,-0.0846 -0.45245,-0.18835 -0.45273,-0.23063 l -5e-4,-0.0769 h 2.09683 2.096844 v 0.089 0.089 l -0.384984,0.0555 -0.38498,0.0555 -0.13923,0.12427 -0.13923,0.12427 v 0.21859 0.21859 l 0.58712,1.07578 c 0.322924,0.59169 0.826884,1.5424 1.119914,2.11269 0.29303,0.570302 0.60018,1.143372 0.68255,1.273502 l 0.14977,0.23658 0.55104,-1.119732 c 0.30307,-0.61586 0.82541,-1.63367 1.16075,-2.26182 l 0.60972,-1.14208 v -0.30605 -0.30605 l -0.13923,-0.12427 -0.13923,-0.12427 -0.38301,-0.0553 -0.38302,-0.0553 0.0513,-0.0893 0.0513,-0.0893 h 1.37638 1.37638 v 0.0935 0.0935 l -0.39434,0.0717 -0.39434,0.0716 -0.39781,0.42783 -0.39781,0.42783 -0.414,0.81645 c -0.2277,0.44905 -0.7819,1.50836 -1.23156,2.35402 l -0.81757,1.537562 -0.0361,1.81934 -0.0361,1.81934 0.0595,0.34106 c 0.0327,0.18758 0.11513,0.4229 0.18314,0.52292 l 0.12364,0.18185 0.51849,0.13475 0.51849,0.13475 -2.09684,0.007 -2.096834,0.007 z m -0.50532,-12.288652 c -1.39934,-1.08678 -2.20113,-1.81759 -3.10511,-2.83027 l -0.76331,-0.85508 -0.29195,-0.62198 -0.29194,-0.62198 -0.10603,-0.53172 -0.10603,-0.53171 0.11203,-0.53836 0.11202,-0.53837 0.2642,-0.39196 0.26419,-0.39196 0.51687,-0.30751 0.51686,-0.30751 0.81014,0.007 0.81014,0.007 0.53856,0.26456 0.53856,0.26457 0.47043,0.49704 c 0.25874,0.27337 0.54081,0.60958 0.62682,0.74714 l 0.15639,0.25011 0.597874,-0.67163 0.59786,-0.67162 0.61952,-0.34025 0.61952,-0.34025 0.81411,-0.003 0.8141,-0.003 0.52025,0.31472 0.52025,0.31473 0.28593,0.49406 0.28593,0.49406 v 0.88124 0.88123 l -0.31412,0.68602 -0.31412,0.68601 -0.70226,0.80285 -0.70226,0.80285 -0.98515,0.82834 c -1.08188,0.90967 -2.578044,2.08098 -2.653084,2.07704 -0.0262,-0.001 -0.51095,-0.3623 -1.07719,-0.80206 z m -53.798037,-3.6777 -3.264397,-0.027 v -0.35114 -0.35113 l 0.405071,-0.0559 c 0.222789,-0.0307 11.191878,-0.0451 24.375754,-0.0319 l 23.970682,0.024 0.02958,0.38439 0.02958,0.38439 -5.128712,0.001 c -2.820792,6.7e-4 -12.334214,0.0122 -21.140938,0.0256 -8.806724,0.0134 -17.481204,0.0123 -19.276622,-0.003 z m 65.144971,-10e-4 -1.40583,-0.0284 v -0.34398 -0.34398 l 0.691,-0.0645 0.691,-0.0645 24.113653,0.006 24.11365,0.006 0.50038,0.0586 0.50039,0.0586 v 0.34695 0.34695 l -1.78708,0.004 c -10.70271,0.0263 -46.341343,0.0402 -47.417163,0.0185 z m 43.806463,-6.17254 c -0.79109,-0.11915 -1.4101,-0.32631 -2.10928,-0.7059 l -0.58559,-0.31791 -0.62694,-0.63074 -0.62695,-0.63073 -0.33082,-0.63622 -0.33083,-0.63622 -0.19035,-0.80043 -0.19035,-0.80043 v -1.05088 -1.05088 l 0.14295,-0.803417 c 0.0786,-0.44188 0.14296,-0.82056 0.14297,-0.8415 1e-5,-0.0209 -0.69695,0.69719 -1.54879,1.595837 -3.53707,3.73142 -5.11859,5.10688 -7.07683,6.15478 l -0.76249,0.40802 -0.51294,0.13022 -0.51294,0.13022 -0.6601,-0.066 -0.66011,-0.066 -0.46755,-0.2548 c -0.25715,-0.14015 -0.61287,-0.39203 -0.79048,-0.55975 l -0.32294,-0.30495 -0.24754,-0.59322 -0.24754,-0.59323 -0.0881,-0.60397 -0.0881,-0.60397 0.0779,-0.7466 c 0.28347,-2.71853 1.69105,-5.530057 5.71884,-11.422937 0.44207,-0.64677 0.92474,-1.37616 1.07261,-1.62087 l 0.26885,-0.44493 0.0168,-0.2726 0.0168,-0.2726 -0.26311,-0.0325 -0.2631,-0.0325 -0.72005,0.3913 -0.72006,0.3913 -1.20899,0.96498 c -3.03673,2.4238 -6.33689,5.77585 -11.3596,11.538217 -1.02221,1.17275 -1.9959,2.28583 -2.16376,2.47352 l -0.3052,0.34126 -0.25769,0.0696 -0.25769,0.0696 -0.54937,-0.10988 -0.54937,-0.10987 -0.25461,-0.17942 -0.25461,-0.17942 -0.0866,-0.24502 c -0.0476,-0.13476 -0.0866,-0.40108 -0.0866,-0.59182 v -0.3468 l 0.24607,-0.85095 0.24606,-0.85095 0.84246,-1.845067 0.84246,-1.84507 1.10635,-1.88633 c 0.6085,-1.03748 1.54137,-2.55966 2.07306,-3.38263 0.53168,-0.82297 1.11778,-1.80861 1.30244,-2.19031 l 0.33573,-0.694 -0.15733,-0.16921 -0.15733,-0.1692 -0.40918,0.13135 c -0.64564,0.20727 -1.16874,0.57123 -2.63578,1.83394 l -1.3688,1.17815 -2.16096,2.31536 c -4.399283,4.71359 -6.839653,7.646607 -9.421393,11.323307 l -0.40457,0.57616 h -0.65358 -0.65358 l -0.32247,-0.23371 -0.32247,-0.23371 -0.12444,-0.25318 -0.12444,-0.25319 0.0469,-0.41291 0.0469,-0.41291 0.43919,-1.1759 c 0.53259,-1.42598 0.89944,-2.28915 1.93198,-4.545717 0.43531,-0.95136 0.77796,-1.74429 0.76144,-1.76206 -0.0165,-0.0178 -0.40845,0.43774 -0.87094,1.01223 -3.15675,3.921227 -5.86874,6.622897 -7.5398,7.511107 l -0.6802,0.36155 -0.62732,0.11556 -0.62731,0.11557 -0.52264,-0.12579 -0.52264,-0.12579 -0.43618,-0.29749 -0.43618,-0.29749 -0.28538,-0.5374 -0.28538,-0.5374 -0.11712,-0.7048 -0.11711,-0.7048 0.11352,-0.91705 0.11353,-0.91704 0.23744,-0.80835 c 0.13059,-0.4446 0.4266,-1.277037 0.6578,-1.849867 0.2312,-0.57283 0.3906,-1.02735 0.35422,-1.01003 -0.0364,0.0173 -0.60616,0.65418 -1.26616,1.41528 -3.335664,3.846527 -6.095004,6.409497 -7.853374,7.294437 l -0.608921,0.30645 -0.657513,0.10496 -0.657514,0.10495 -0.52863,-0.11802 -0.52863,-0.11803 -0.434873,-0.30979 -0.434873,-0.30978 -0.327055,-0.47935 -0.327054,-0.47935 -0.16462,-0.60934 -0.16462,-0.60934 0.0499,-1.23573 0.0499,-1.23573 0.252451,-0.91428 c 0.46431,-1.681537 1.34449,-3.805947 2.380669,-5.745997 0.561496,-1.0513 0.550585,-1.15068 -0.05049,-0.45986 -2.537289,2.91614 -6.215629,6.897887 -7.32835,7.932847 -1.823425,1.696 -3.055283,2.67198 -4.050711,3.20933 l -0.571866,0.3087 -0.505073,0.11534 c -0.27779,0.0634 -0.712894,0.11534 -0.966897,0.11534 H 57.1071 l -0.607845,-0.20191 -0.607844,-0.20191 -0.400907,-0.4269 -0.400907,-0.42689 -0.214529,-0.57562 -0.214529,-0.57561 0.002,-1.12754 0.002,-1.12755 0.217206,-0.76878 c 0.350271,-1.239747 0.547625,-1.768247 1.11323,-2.981137 0.512965,-1.10002 1.409762,-2.74595 1.777118,-3.26162 0.311179,-0.43682 0.09421,-0.36209 -0.421448,0.14516 -0.276018,0.27152 -2.110221,2.13998 -4.076008,4.15214 -4.723911,4.835347 -6.010008,6.058407 -7.475101,7.108727 l -0.660374,0.47343 -0.531012,0.22195 -0.531011,0.22196 -0.635383,0.0459 -0.635384,0.0459 -0.505296,-0.1805 -0.505296,-0.1805 -0.488775,-0.52566 -0.488775,-0.52566 -0.194037,-0.5606 -0.194036,-0.5606 -0.06653,-0.62468 -0.06653,-0.62468 0.153285,-0.95527 0.153285,-0.95528 0.241548,-0.75264 c 0.654249,-2.038587 2.08908,-4.412077 4.166938,-6.892917 l 1.065881,-1.2726 1.152927,-1.09377 c 1.397007,-1.32533 2.363638,-2.1241 3.717122,-3.07163 l 1.023554,-0.71655 1.247197,-0.66444 1.247196,-0.66444 0.762487,-0.26456 c 0.419368,-0.14551 1.148496,-0.33696 1.620285,-0.42545 l 0.857797,-0.16089 0.714832,0.0519 0.714831,0.0519 0.549843,0.20866 0.549842,0.20865 0.391966,0.33387 0.391965,0.33387 0.273263,0.62137 0.273263,0.62137 0.06008,0.48689 c 0.0751,0.60861 -0.154162,0.77875 1.815288,-1.34723 l 1.699078,-1.83412 0.318551,-0.0724 0.318551,-0.0724 0.443936,0.0699 c 0.809846,0.1276 1.596454,0.59836 1.942371,1.16245 l 0.168249,0.27436 6.28e-4,0.22025 6.28e-4,0.22025 -0.648731,0.75354 c -5.050756,5.86598 -9.710219,13.207207 -10.221834,16.104167 l -0.09484,0.53703 0.05764,0.28294 c 0.0317,0.15561 0.121532,0.35165 0.199625,0.43564 l 0.141986,0.1527 h 0.413987 0.413987 l 0.746763,-0.42064 0.746763,-0.42065 1.048419,-0.85381 c 2.432069,-1.98062 5.87575,-5.566167 11.810154,-12.296687 l 0.4519,-0.51252 1.0194,-1.64007 c 1.99166,-3.20431 3.28387,-5.17389 6.355234,-9.68663 1.28377,-1.88623 4.3252,-6.24554 5.37303,-7.70119 0.47199,-0.6557 0.83896,-1.21284 0.81548,-1.23809 -0.12808,-0.13775 -5.64692,0.69256 -8.010694,1.20521 l -1.6289,0.35327 -1.31527,0.41364 c -0.7234,0.22749 -1.78316,0.61973 -2.35503,0.87162 l -1.039747,0.45799 -0.495681,0.34587 c -0.272624,0.19023 -0.643651,0.51326 -0.824503,0.71785 l -0.328822,0.37198 v 0.35326 0.35326 l 0.168918,0.20074 c 0.09291,0.11041 0.294488,0.25668 0.447961,0.32505 l 0.279043,0.1243 v 0.10441 0.10441 l -0.528705,-0.0587 -0.528704,-0.0587 -0.429203,-0.27051 -0.429204,-0.27051 -0.157175,-0.35448 -0.157175,-0.35447 0.119864,-0.48199 0.119864,-0.48198 0.244136,-0.34423 c 0.134275,-0.18933 0.490861,-0.53957 0.792415,-0.77832 l 0.548278,-0.43408 1.179741,-0.62686 1.179739,-0.62686 0.96452,-0.35677 c 0.53048,-0.19622 1.83862,-0.58926 2.90698,-0.87341 l 1.94247,-0.51664 1.429664,-0.25454 c 1.7413,-0.31002 6.63503,-0.98348 7.14658,-0.98348 0.0204,0 0.30622,-0.35748 0.6351,-0.7944 0.74676,-0.99211 2.15545,-2.76506 2.79223,-3.51426 0.26518,-0.312 0.65371,-0.77342 0.86339,-1.02538 2.49164,-2.99396 5.29928,-6.05166 6.6698,-7.26383 l 0.4746,-0.41976 0.32042,-0.11373 0.320423,-0.11373 0.63465,0.0395 0.63464,0.0395 0.46204,0.24175 0.46204,0.24175 0.18096,0.31914 0.18095,0.31915 -0.003,0.35876 -0.003,0.35877 -0.11577,0.21839 c -0.14547,0.27445 -0.72047,0.96862 -1.72949,2.08795 -2.238033,2.48267 -7.011903,8.19987 -7.011903,8.39746 v 0.0627 l 2.45425,-0.22181 c 1.34985,-0.12199 3.29588,-0.27271 4.324543,-0.33494 l 1.87027,-0.11314 h 2.58822 2.58822 l 1.35547,0.1534 c 0.7455,0.0844 1.78743,0.24206 2.31539,0.35043 l 0.95993,0.19703 0.76937,0.3191 0.76936,0.31909 0.39374,0.30674 0.39373,0.30675 0.2012,0.44539 0.20121,0.4454 -0.066,0.37827 -0.066,0.37827 -0.32191,0.38321 -0.32191,0.38321 -0.48257,0.24308 c -0.58823,0.2963 -0.67552,0.23926 -0.29834,-0.19497 l 0.28569,-0.32893 0.0633,-0.36282 0.0633,-0.36283 -0.1523,-0.34349 -0.1523,-0.34349 -0.40651,-0.22303 c -0.22357,-0.12267 -0.70238,-0.33126 -1.06401,-0.46355 l -0.65752,-0.24051 -1.05991,-0.18097 -1.0599,-0.18098 -3.95541,0.003 -3.9554,0.003 -1.906213,0.18319 c -2.13062,0.20475 -6.89644,0.76551 -7.06996,0.83188 -0.0617,0.0236 -0.77088,0.9336 -1.57585,2.02219 -1.35233,1.82879 -1.95139,2.65752 -3.61661,5.00313 -0.34021,0.4792 -0.91377,1.28642 -1.2746,1.79382 -6.682954,9.39762 -11.785394,17.48642 -13.772555,21.833347 l -0.74974,1.64007 -0.296689,0.97379 -0.296689,0.97378 -0.01378,0.72887 -0.01378,0.72886 0.161914,0.26576 0.161913,0.26576 0.343503,0.0693 0.343503,0.0693 0.395877,-0.12731 c 0.910459,-0.2928 1.637749,-0.81757 3.679139,-2.65465 l 1.09559,-0.98596 2.29018,-2.468307 c 1.259604,-1.35757 2.785954,-3.06426 3.391904,-3.79265 l 1.10171,-1.32434 0.55774,-0.87128 c 1.09933,-1.71735 3.62547,-5.31682 3.9566,-5.63772 0.0291,-0.0282 0.33789,-0.42226 0.68622,-0.87571 0.34834,-0.45345 0.83422,-1.02359 1.07974,-1.26698 l 0.44639,-0.44253 0.59115,0.0405 0.59115,0.0405 0.55137,0.29012 0.55137,0.29012 0.1822,0.32135 0.1822,0.32136 3.6e-4,0.24374 3.5e-4,0.24374 -0.64958,0.83255 c -1.04729,1.34227 -3.87352,5.50208 -4.9846,7.33662 -1.95619,3.22992 -3.03784,5.336707 -3.65452,7.118087 l -0.35108,1.01416 -0.0545,0.69862 -0.0545,0.69861 0.15866,0.26043 0.15866,0.26042 0.35522,-10e-4 0.35522,-10e-4 0.47655,-0.2405 c 1.65561,-0.83554 5.34174,-4.63843 9.50823,-9.809417 l 1.12025,-1.39033 1.35752,-2.21244 c 2.02479,-3.29993 2.65289,-4.27879 2.998173,-4.67253 l 0.3123,-0.35612 0.64381,0.0497 0.64381,0.0497 0.39607,0.2175 0.39606,0.21751 0.19963,0.27294 0.19963,0.27295 v 0.29559 0.2956 l -0.84326,1.45877 c -0.4638,0.80233 -1.02413,1.78167 -1.2452,2.17631 -0.22106,0.39464 -0.52165,0.92509 -0.66799,1.17879 -0.586163,1.01622 -3.046863,5.51016 -3.227313,5.89398 -0.10602,0.22551 -0.49313,0.975067 -0.86026,1.665687 -0.7256,1.36499 -0.75378,1.55166 -0.10834,0.71753 4.938743,-6.382407 10.625433,-12.036927 13.018973,-12.945317 l 0.65281,-0.24775 0.61952,9e-5 0.61952,9e-5 0.39231,0.1916 0.3923,0.1916 0.24577,0.34653 0.24576,0.34653 0.10309,0.49471 0.10308,0.49472 -0.10514,0.62358 c -0.25804,1.53042 -1.79878,4.62223 -4.4373,8.904307 -0.33514,0.5439 -0.60934,1.01606 -0.60934,1.04923 0,0.0332 0.60773,-0.61941 1.35051,-1.450177 5.94611,-6.65055 9.59109,-10.05773 12.19808,-11.40226 l 0.79569,-0.41038 0.54804,-0.12342 0.54804,-0.12342 0.54361,0.12263 0.54362,0.12263 0.33801,0.29378 c 0.18591,0.16159 0.41904,0.44255 0.51808,0.62436 l 0.18007,0.33056 0.0463,0.69584 0.0463,0.69584 -0.21055,0.68045 -0.21055,0.68045 -0.66661,1.19049 c -0.36663,0.65477 -1.16352,2.02669 -1.77086,3.04872 -1.61928,2.72488 -2.34196,4.047777 -3.06798,5.616017 l -0.64822,1.40021 -0.20338,0.81061 -0.20337,0.81061 v 0.53582 0.53583 l 0.23394,0.2516 0.23395,0.2516 h 0.28669 0.28668 l 0.52372,-0.21073 0.52371,-0.21074 0.69508,-0.50416 c 0.38229,-0.27729 0.90354,-0.66302 1.15834,-0.85719 0.92046,-0.70142 3.1043,-2.82798 5.40884,-5.266967 l 2.35119,-2.48836 0.12108,-0.3305 c 0.33265,-0.90798 1.49363,-2.82012 2.72124,-4.48191 l 0.87081,-1.1788 0.9951,-1.03043 c 1.19272,-1.23506 2.00442,-1.94781 3.24872,-2.85267 l 0.93051,-0.67668 1.07102,-0.56036 c 1.22936,-0.64321 2.16163,-0.99347 3.30095,-1.24021 l 0.80026,-0.1733 1.0583,0.0453 1.05829,0.0453 0.47656,0.22831 0.47655,0.22831 0.3586,0.37574 0.35859,0.37575 0.0936,0.36235 c 0.0515,0.19929 0.0938,0.57308 0.0941,0.83064 l 5.4e-4,0.46829 -0.1536,0.55675 c -0.55993,2.02962 -2.65696,4.53796 -5.59484,6.6922 l -0.93523,0.68577 -1.01898,0.54961 c -1.22637,0.66146 -2.36045,1.10334 -3.43864,1.33982 l -0.80005,0.17547 -0.80927,-0.0354 -0.80928,-0.0354 -0.54812,1.1788 -0.54811,1.17879 -0.30849,0.971277 c -0.34105,1.07379 -0.56265,2.24933 -0.56774,3.01171 l -0.003,0.49786 0.15476,0.68956 0.15476,0.68957 0.31534,0.46734 0.31535,0.46733 0.55449,0.29282 0.55449,0.29282 1.00076,-0.0152 1.00077,-0.0152 0.85779,-0.27326 c 3.79689,-1.20953 9.15368,-4.64626 14.13923,-9.071237 0.54248,-0.48148 1.27453,-1.12912 1.62679,-1.43919 0.84682,-0.74542 2.66155,-2.45794 3.96333,-3.74011 0.57663,-0.56795 1.21075,-1.18112 1.40916,-1.36261 l 0.36073,-0.32999 h 0.13965 0.13965 v 0.15827 0.15827 l -1.88239,2.02591 c -8.51171,9.160647 -16.62508,14.712747 -21.94533,15.017497 l -0.90545,0.0519 z m -88.674048,-2.54567 c 1.538377,-0.84342 4.553199,-3.6514 10.19843,-9.498747 0.707775,-0.73312 1.98025,-2.01758 2.827722,-2.85435 l 1.540858,-1.52141 0.242582,-0.70384 c 0.133421,-0.38712 0.292441,-1.01176 0.353378,-1.3881 l 0.110795,-0.68424 -0.05168,-0.53848 -0.05168,-0.53847 -0.152573,-0.31731 -0.152572,-0.31731 -0.279587,-0.15549 -0.279586,-0.15549 h -0.3234 -0.3234 l -0.523618,0.19374 c -2.223253,0.82264 -6.214943,4.67192 -10.694462,10.31291 -1.593264,2.00638 -3.30047,4.992997 -3.717608,6.503667 l -0.153271,0.55507 v 0.57592 0.57592 l 0.114373,0.123 0.114373,0.123 0.338354,-0.001 0.338354,-0.001 z m 91.508058,-9.232417 0.7073,-0.19455 0.85591,-0.42527 c 1.66162,-0.82561 3.44667,-2.17997 5.09564,-3.8662 l 0.9356,-0.95674 0.74051,-1.05087 0.7405,-1.05087 0.32678,-0.73838 0.32679,-0.73838 0.0515,-0.41286 0.0515,-0.41285 -0.1158,-0.30065 -0.11579,-0.30066 -0.28341,-0.12625 -0.2834,-0.12624 -0.50288,0.12103 -0.50288,0.12103 -0.70668,0.43428 c -2.03641,1.25142 -4.7744,3.99106 -7.03712,7.04136 -0.74963,1.01054 -2.00927,2.9509 -2.00927,3.09509 v 0.0825 h 0.50896 0.50896 z m -41.405743,-15.08312 -0.36479,-0.21346 -0.18116,-0.42913 -0.18115,-0.42913 -0.002,-0.41703 -0.002,-0.41704 0.15205,-0.55675 c 0.25683,-0.94037 0.88724,-1.89526 1.64715,-2.49495 l 0.44061,-0.34771 0.55155,-0.17234 0.55155,-0.17235 0.36189,0.0658 c 0.19904,0.0362 0.4956,0.15321 0.65903,0.2601 l 0.29715,0.19435 0.15885,0.33037 0.15886,0.33037 -0.042,0.78001 -0.042,0.78 -0.27403,0.5415 -0.27404,0.54149 -0.54575,0.64055 -0.54576,0.64054 -0.58216,0.33371 -0.58217,0.33371 -0.49736,0.0455 -0.49736,0.0454 z"
       id="path1" /></g></svg>
